<?xml version="1.0" standalone="no"?>
<!DOCTYPE svg PUBLIC "-//W3C//DTD SVG 20010904//EN"
 "http://www.w3.org/TR/2001/REC-SVG-20010904/DTD/svg10.dtd">
<svg version="1.0" xmlns="http://www.w3.org/2000/svg"
 width="350.000000pt" height="350.000000pt" viewBox="0 0 350.000000 350.000000"
 preserveAspectRatio="xMidYMid meet">
<metadata>
Created by potrace 1.11, written by Peter Selinger 2001-2013
</metadata>
<g transform="translate(0.000000,350.000000) scale(0.100000,-0.100000)"
fill="#000000" stroke="none">
<path d="M1543 3086 c-383 -63 -735 -322 -917 -675 -91 -177 -136 -372 -136
-588 0 -386 170 -734 477 -978 599 -476 1485 -315 1871 340 127 216 181 412
182 661 0 376 -174 736 -474 975 -152 122 -314 201 -509 250 -106 27 -373 35
-494 15z m462 -145 c364 -90 646 -325 791 -660 19 -44 47 -124 61 -178 23 -86
26 -117 26 -258 0 -170 -10 -239 -58 -381 -195 -580 -846 -902 -1425 -706
-668 227 -970 963 -654 1593 161 323 479 550 849 609 93 14 317 4 410 -19z"/>
<path d="M1680 2714 c-16 -14 -30 -31 -30 -38 0 -7 -18 -22 -40 -35 -48 -27
-54 -35 -41 -59 8 -16 -4 -31 -90 -101 -54 -45 -99 -89 -99 -97 0 -9 18 -47
41 -86 32 -55 45 -69 60 -65 12 3 19 0 19 -9 0 -11 -19 -14 -85 -14 -50 0 -85
-4 -85 -10 0 -6 -48 -10 -124 -10 -96 0 -126 -3 -136 -15 -19 -23 -2 -35 48
-35 56 0 75 -10 70 -36 -3 -17 -16 -19 -133 -24 -122 -5 -130 -6 -130 -25 0
-19 8 -20 181 -23 146 -2 184 -5 194 -17 10 -12 10 -18 0 -30 -9 -11 -41 -15
-128 -17 -109 -3 -117 -4 -117 -23 0 -18 8 -20 93 -23 71 -2 94 -6 99 -18 13
-34 -15 -43 -135 -46 -109 -3 -117 -4 -117 -23 0 -18 8 -20 95 -25 89 -5 95
-6 98 -27 3 -23 -9 -29 -73 -35 -22 -2 -30 -8 -30 -23 0 -19 8 -20 167 -23
155 -2 167 -4 173 -22 3 -10 20 -31 36 -45 44 -36 106 -35 148 4 17 16 31 36
31 45 0 14 23 16 195 16 172 0 195 -2 195 -16 0 -9 14 -29 31 -45 42 -39 104
-40 148 -4 16 14 33 35 36 45 4 14 15 20 35 20 50 0 60 21 60 122 l0 90 -58
26 c-59 25 -59 26 -79 92 l-19 67 20 9 c29 12 31 45 6 77 l-21 27 -175 0 -174
0 0 55 c0 52 2 55 24 55 24 0 56 23 56 40 0 8 23 35 95 110 15 15 29 46 35 78
14 74 24 88 75 108 36 13 45 21 43 37 -2 16 -16 24 -53 34 -72 18 -120 16
-166 -8 -41 -20 -41 -20 -59 -1 -15 15 -33 19 -99 20 -73 1 -84 -2 -111 -24z
m89 -38 c9 -11 6 -12 -14 -8 -14 2 -32 -1 -40 -8 -10 -8 -15 -9 -15 -2 0 12
28 31 46 32 6 0 17 -6 23 -14z m92 -8 c11 -21 11 -22 -4 -9 -10 7 -17 17 -17
22 0 15 9 10 21 -13z m189 12 c0 -5 -12 -10 -27 -10 -15 0 -52 -12 -81 -27
-42 -21 -55 -24 -65 -14 -9 10 -8 11 5 6 10 -4 29 2 47 14 51 37 121 54 121
31z m-391 -91 c-22 -14 -33 -10 -19 6 7 8 17 12 22 9 6 -4 5 -10 -3 -15z m181
1 c-8 -5 -18 -6 -24 -3 -5 4 -1 10 10 13 24 9 34 2 14 -10z m-225 -90 c4 -6 2
-9 -4 -8 -5 2 -44 -26 -86 -60 -42 -35 -78 -62 -81 -60 -5 5 147 137 158 138
4 0 10 -5 13 -10z m150 -208 c24 5 25 3 25 -38 l0 -44 -116 0 -115 0 3 27 c3
23 12 30 78 54 67 25 76 26 87 12 8 -10 22 -14 38 -11z m385 -142 c-14 -4 -38
-11 -53 -14 l-28 -7 3 -107 3 -107 80 -6 c44 -3 -112 -6 -347 -7 l-428 -2 0
48 0 47 65 -3 c65 -4 65 -4 65 -33 l0 -30 123 3 122 3 0 100 0 100 -122 3
-123 3 -42 -38 c-24 -21 -53 -47 -65 -57 l-23 -19 0 66 0 67 398 -1 c226 0
386 -4 372 -9z m-487 -84 l-28 -35 -94 0 -94 -1 39 35 c38 33 42 34 122 35
l84 0 -29 -34z m486 -35 c7 -23 15 -49 18 -57 4 -10 -3 -14 -21 -14 -25 0 -26
1 -26 67 0 72 9 74 29 4z m-579 -259 c27 -22 29 -65 5 -92 -50 -55 -139 24
-92 82 24 31 57 35 87 10z m618 -9 c45 -60 -43 -139 -93 -83 -25 27 -22 70 6
93 26 21 66 16 87 -10z"/>
<path d="M1892 2073 l3 -58 50 0 50 0 -2 44 c-3 66 -7 71 -58 71 l-46 0 3 -57z"/>
<path d="M1121 1603 c-1 -8 -14 -13 -31 -13 -20 0 -30 -5 -30 -15 0 -13 86
-15 715 -15 629 0 715 2 715 15 0 13 -82 15 -679 15 -534 0 -680 3 -684 13 -4
10 -6 10 -6 0z"/>
<path d="M972 1393 c3 -103 4 -108 26 -111 22 -3 22 -2 22 107 l0 111 -25 0
-26 0 3 -107z"/>
<path d="M1049 1484 c-14 -18 -24 -111 -15 -148 20 -80 126 -71 126 11 0 33
-36 31 -44 -2 -4 -14 -13 -25 -21 -25 -12 0 -15 15 -15 70 0 57 3 70 16 70 9
0 18 -9 21 -20 7 -25 43 -27 43 -2 0 10 -7 28 -16 40 -18 26 -75 30 -95 6z"/>
<path d="M1170 1390 l0 -110 45 0 c33 0 45 4 45 15 0 9 -9 15 -25 15 -22 0
-25 4 -25 35 0 28 4 35 20 35 11 0 20 7 20 15 0 8 -9 15 -20 15 -16 0 -20 7
-20 30 0 25 4 30 25 30 16 0 25 6 25 15 0 11 -12 15 -45 15 l-45 0 0 -110z"/>
<path d="M1327 1482 c-11 -12 -17 -36 -17 -70 0 -51 -1 -52 -30 -52 -20 0 -30
-5 -30 -15 0 -10 10 -15 29 -15 20 0 34 -8 45 -25 11 -17 26 -25 44 -25 37 0
51 11 62 46 8 29 8 29 9 -8 1 -34 4 -38 26 -38 23 0 25 3 26 53 l1 52 17 -50
18 -50 89 0 c85 0 89 1 92 23 5 30 30 28 38 -3 4 -16 13 -25 25 -25 23 0 24
-6 -3 118 -19 90 -24 102 -42 102 -19 0 -24 -11 -41 -92 -19 -87 -22 -93 -45
-93 -21 0 -26 5 -28 33 -3 27 0 32 17 32 12 0 21 7 21 15 0 8 -9 15 -20 15
-16 0 -20 7 -20 30 0 27 3 30 30 30 20 0 30 5 30 15 0 11 -12 15 -50 15 l-50
0 -1 -107 -1 -108 -14 45 c-11 33 -12 51 -4 68 27 61 -1 102 -68 102 l-42 0 0
-69 c0 -67 0 -68 -25 -63 -22 4 -25 1 -25 -23 0 -20 -4 -26 -17 -23 -15 3 -18
14 -18 68 0 54 3 65 18 68 12 2 17 -3 17 -17 0 -14 6 -21 20 -21 15 0 20 7 20
24 0 51 -69 76 -103 38z m180 -59 c-16 -16 -17 -15 -17 17 0 32 1 33 17 17 16
-16 16 -18 0 -34z m220 -55 c-3 -7 -5 -2 -5 12 0 14 2 19 5 13 2 -7 2 -19 0
-25z"/>
<path d="M1800 1390 c0 -103 1 -110 20 -110 16 0 20 7 21 38 l2 37 6 -35 c7
-42 38 -54 45 -18 3 13 7 32 9 43 3 11 5 1 6 -22 1 -36 4 -43 21 -43 19 0 20
7 20 111 l0 110 -27 -3 c-25 -3 -28 -8 -38 -63 l-11 -60 -12 63 c-12 56 -15
62 -38 62 l-24 0 0 -110z"/>
<path d="M2020 1390 c0 -103 1 -110 20 -110 17 0 20 7 20 49 0 47 2 50 27 53
17 2 32 12 40 28 11 22 13 16 13 -52 l0 -78 64 0 c59 0 65 2 68 23 2 12 10 22
18 22 8 0 16 -10 18 -22 3 -22 8 -23 98 -23 92 0 94 1 100 25 3 14 12 25 19
25 7 0 16 -11 19 -25 4 -17 13 -25 27 -25 17 0 20 5 16 23 -3 12 -13 61 -23
110 -16 77 -21 87 -39 87 -19 0 -24 -11 -41 -92 -20 -93 -20 -93 -52 -96 -18
-2 -32 -1 -32 1 0 2 14 37 30 77 42 103 41 110 -20 110 -38 0 -50 -4 -50 -15
0 -9 9 -15 25 -15 14 0 25 -3 25 -7 0 -4 -12 -38 -27 -76 -29 -75 -35 -74 -53
18 -18 93 -20 96 -43 93 -18 -3 -24 -17 -40 -95 -18 -86 -21 -93 -43 -93 -24
0 -24 2 -24 95 0 88 -1 95 -20 95 -16 0 -20 -7 -21 -32 -1 -22 -3 -26 -6 -13
-9 35 -24 45 -69 45 l-44 0 0 -110z m65 50 c0 -13 -6 -25 -12 -27 -9 -3 -13 6
-13 27 0 21 4 30 13 28 6 -3 12 -15 12 -28z m442 -67 c-3 -10 -5 -4 -5 12 0
17 2 24 5 18 2 -7 2 -21 0 -30z m-227 -3 c0 -5 -4 -10 -10 -10 -5 0 -10 5 -10
10 0 6 5 10 10 10 6 0 10 -4 10 -10z"/>
<path d="M1430 1125 l0 -85 35 0 c19 0 35 5 35 10 0 6 -9 10 -20 10 -27 0 -30
60 -2 60 16 1 16 1 0 14 -25 19 -24 56 2 56 11 0 20 5 20 10 0 6 -16 10 -35
10 l-35 0 0 -85z"/>
<path d="M1522 1198 c-21 -21 -13 -56 18 -78 17 -12 30 -30 30 -41 0 -24 -19
-25 -36 -2 -16 22 -32 8 -18 -15 16 -24 55 -28 71 -6 18 25 17 29 -24 74 -28
32 -34 43 -24 53 10 9 15 8 25 -5 17 -23 26 -23 26 1 0 29 -45 42 -68 19z"/>
<path d="M1600 1200 c0 -5 7 -10 15 -10 12 0 15 -15 15 -75 0 -60 3 -75 15
-75 12 0 15 15 15 75 0 60 3 75 15 75 8 0 15 5 15 10 0 6 -20 10 -45 10 -25 0
-45 -4 -45 -10z"/>
<path d="M1742 1198 c-14 -14 -16 -48 -3 -48 5 0 11 9 14 20 3 11 10 20 16 20
25 0 22 -32 -8 -78 -17 -27 -31 -54 -31 -60 0 -7 16 -12 40 -12 22 0 40 5 40
10 0 6 -11 10 -25 10 -14 0 -25 2 -25 6 0 3 11 22 25 42 37 54 29 102 -15 102
-9 0 -21 -5 -28 -12z"/>
<path d="M1830 1184 c-11 -29 -13 -78 -4 -112 9 -31 53 -41 71 -17 15 22 17
108 3 136 -16 29 -58 25 -70 -7z m50 -59 c0 -51 -3 -65 -15 -65 -12 0 -15 14
-15 65 0 51 3 65 15 65 12 0 15 -14 15 -65z"/>
<path d="M1929 1189 c-8 -16 -8 -24 0 -32 9 -9 13 -6 17 11 4 12 13 22 20 22
24 0 16 -44 -16 -86 -41 -54 -39 -64 15 -64 25 0 45 5 45 10 0 6 -14 10 -31
10 -31 0 -31 1 -15 23 39 55 48 79 37 103 -14 31 -56 32 -72 3z"/>
<path d="M2031 1196 c-19 -23 -10 -136 12 -150 12 -8 22 -8 35 0 21 14 30 127
11 150 -15 18 -43 18 -58 0z m47 -66 c3 -56 -11 -87 -28 -60 -11 17 -13 80 -4
105 12 31 29 8 32 -45z"/>
<path d="M1685 1090 c-3 -5 3 -10 14 -10 12 0 21 5 21 10 0 6 -6 10 -14 10 -8
0 -18 -4 -21 -10z"/>
</g>
</svg>
